<svg xmlns:xlink="http://www.w3.org/1999/xlink" xmlns="http://www.w3.org/2000/svg" class="feature__icon-image" fill="#FF0B37" height="40" width="33.6"><defs><symbol id="university" viewBox="0 0 80 80">
<path d="M17.5999 35.1999H4.79998C3.52695 35.1999 2.30605 35.7057 1.40588 36.6058C0.50571 37.506 0 38.7269 0 39.9999V78.3998C0 78.8241 0.168571 79.2311 0.468627 79.5311C0.768684 79.8312 1.17565 79.9998 1.59999 79.9998H17.5999C18.0243 79.9998 18.4312 79.8312 18.7313 79.5311C19.0313 79.2311 19.1999 78.8241 19.1999 78.3998V36.7999C19.1999 36.3756 19.0313 35.9686 18.7313 35.6686C18.4312 35.3685 18.0243 35.1999 17.5999 35.1999ZM11.2 73.5998H7.99997C7.57562 73.5998 7.16865 73.4312 6.8686 73.1312C6.56854 72.8311 6.39997 72.4241 6.39997 71.9998C6.39997 71.5754 6.56854 71.1685 6.8686 70.8684C7.16865 70.5684 7.57562 70.3998 7.99997 70.3998H11.2C11.6243 70.3998 12.0313 70.5684 12.3313 70.8684C12.6314 71.1685 12.7999 71.5754 12.7999 71.9998C12.7999 72.4241 12.6314 72.8311 12.3313 73.1312C12.0313 73.4312 11.6243 73.5998 11.2 73.5998ZM11.2 63.9998H7.99997C7.57562 63.9998 7.16865 63.8313 6.8686 63.5312C6.56854 63.2311 6.39997 62.8242 6.39997 62.3998C6.39997 61.9755 6.56854 61.5685 6.8686 61.2685C7.16865 60.9684 7.57562 60.7998 7.99997 60.7998H11.2C11.6243 60.7998 12.0313 60.9684 12.3313 61.2685C12.6314 61.5685 12.7999 61.9755 12.7999 62.3998C12.7999 62.8242 12.6314 63.2311 12.3313 63.5312C12.0313 63.8313 11.6243 63.9998 11.2 63.9998ZM11.2 54.3999H7.99997C7.57562 54.3999 7.16865 54.2313 6.8686 53.9312C6.56854 53.6312 6.39997 53.2242 6.39997 52.7999C6.39997 52.3755 6.56854 51.9686 6.8686 51.6685C7.16865 51.3684 7.57562 51.1999 7.99997 51.1999H11.2C11.6243 51.1999 12.0313 51.3684 12.3313 51.6685C12.6314 51.9686 12.7999 52.3755 12.7999 52.7999C12.7999 53.2242 12.6314 53.6312 12.3313 53.9312C12.0313 54.2313 11.6243 54.3999 11.2 54.3999ZM11.2 44.7999H7.99997C7.57562 44.7999 7.16865 44.6313 6.8686 44.3313C6.56854 44.0312 6.39997 43.6243 6.39997 43.1999C6.39997 42.7756 6.56854 42.3686 6.8686 42.0685C7.16865 41.7685 7.57562 41.5999 7.99997 41.5999H11.2C11.6243 41.5999 12.0313 41.7685 12.3313 42.0685C12.6314 42.3686 12.7999 42.7756 12.7999 43.1999C12.7999 43.6243 12.6314 44.0312 12.3313 44.3313C12.0313 44.6313 11.6243 44.7999 11.2 44.7999Z"></path>
<path d="M75.2 35.1999H62.4001C61.9757 35.1999 61.5688 35.3685 61.2687 35.6686C60.9687 35.9686 60.8001 36.3756 60.8001 36.7999V78.3998C60.8001 78.8241 60.9687 79.2311 61.2687 79.5311C61.5688 79.8312 61.9757 79.9998 62.4001 79.9998H78.4C78.8243 79.9998 79.2313 79.8312 79.5314 79.5311C79.8314 79.2311 80 78.8241 80 78.3998V39.9999C80 38.7269 79.4943 37.506 78.5941 36.6058C77.6939 35.7057 76.4731 35.1999 75.2 35.1999ZM72 73.5998H68.8C68.3757 73.5998 67.9687 73.4312 67.6687 73.1312C67.3686 72.8311 67.2001 72.4241 67.2001 71.9998C67.2001 71.5754 67.3686 71.1685 67.6687 70.8684C67.9687 70.5684 68.3757 70.3998 68.8 70.3998H72C72.4244 70.3998 72.8313 70.5684 73.1314 70.8684C73.4315 71.1685 73.6 71.5754 73.6 71.9998C73.6 72.4241 73.4315 72.8311 73.1314 73.1312C72.8313 73.4312 72.4244 73.5998 72 73.5998ZM72 63.9998H68.8C68.3757 63.9998 67.9687 63.8313 67.6687 63.5312C67.3686 63.2311 67.2001 62.8242 67.2001 62.3998C67.2001 61.9755 67.3686 61.5685 67.6687 61.2685C67.9687 60.9684 68.3757 60.7998 68.8 60.7998H72C72.4244 60.7998 72.8313 60.9684 73.1314 61.2685C73.4315 61.5685 73.6 61.9755 73.6 62.3998C73.6 62.8242 73.4315 63.2311 73.1314 63.5312C72.8313 63.8313 72.4244 63.9998 72 63.9998ZM72 54.3999H68.8C68.3757 54.3999 67.9687 54.2313 67.6687 53.9312C67.3686 53.6312 67.2001 53.2242 67.2001 52.7999C67.2001 52.3755 67.3686 51.9686 67.6687 51.6685C67.9687 51.3684 68.3757 51.1999 68.8 51.1999H72C72.4244 51.1999 72.8313 51.3684 73.1314 51.6685C73.4315 51.9686 73.6 52.3755 73.6 52.7999C73.6 53.2242 73.4315 53.6312 73.1314 53.9312C72.8313 54.2313 72.4244 54.3999 72 54.3999ZM72 44.7999H68.8C68.3757 44.7999 67.9687 44.6313 67.6687 44.3313C67.3686 44.0312 67.2001 43.6243 67.2001 43.1999C67.2001 42.7756 67.3686 42.3686 67.6687 42.0685C67.9687 41.7685 68.3757 41.5999 68.8 41.5999H72C72.4244 41.5999 72.8313 41.7685 73.1314 42.0685C73.4315 42.3686 73.6 42.7756 73.6 43.1999C73.6 43.6243 73.4315 44.0312 73.1314 44.3313C72.8313 44.6313 72.4244 44.7999 72 44.7999Z"></path>
<path d="M36.8 65.5995H43.2V79.9995H36.8V65.5995Z"></path>
<path d="M41.5992 20.0303V1.59999C41.5992 1.17565 41.4307 0.768684 41.1306 0.468627C40.8305 0.168571 40.4236 0 39.9992 0H22.3993C22.1022 0 21.8109 0.0827431 21.5581 0.238958C21.3054 0.395172 21.1011 0.618687 20.9682 0.884455C20.8353 1.15022 20.7791 1.44774 20.8058 1.74368C20.8325 2.03962 20.941 2.32228 21.1193 2.55999L25.1993 7.99997L21.1193 13.4399C20.941 13.6777 20.8325 13.9603 20.8058 14.2563C20.7791 14.5522 20.8353 14.8497 20.9682 15.1155C21.1011 15.3812 21.3054 15.6048 21.5581 15.761C21.8109 15.9172 22.1022 15.9999 22.3993 15.9999H38.3992V20.0303L22.9993 32.3503C22.812 32.5002 22.6608 32.6904 22.557 32.9067C22.4531 33.123 22.3992 33.3599 22.3993 33.5999V78.3997C22.3993 78.824 22.5679 79.231 22.8679 79.531C23.168 79.8311 23.5749 79.9997 23.9993 79.9997H33.5993V63.9997C33.5993 63.5754 33.7678 63.1684 34.0679 62.8684C34.3679 62.5683 34.7749 62.3997 35.1993 62.3997H44.7992C45.2236 62.3997 45.6305 62.5683 45.9306 62.8684C46.2306 63.1684 46.3992 63.5754 46.3992 63.9997V79.9997H55.9992C56.4235 79.9997 56.8305 79.8311 57.1305 79.531C57.4306 79.231 57.5992 78.824 57.5992 78.3997V33.5999C57.5993 33.3599 57.5454 33.123 57.4415 32.9067C57.3377 32.6904 57.1865 32.5002 56.9992 32.3503L41.5992 20.0303ZM39.9992 31.9999C40.9486 31.9999 41.8766 32.2814 42.666 32.8088C43.4553 33.3362 44.0705 34.0859 44.4338 34.963C44.7971 35.8401 44.8922 36.8052 44.707 37.7363C44.5218 38.6674 44.0646 39.5227 43.3933 40.1939C42.722 40.8652 41.8668 41.3224 40.9357 41.5076C40.0046 41.6928 39.0394 41.5977 38.1624 41.2344C37.2853 40.8711 36.5356 40.2559 36.0082 39.4666C35.4808 38.6772 35.1993 37.7492 35.1993 36.7998C35.1993 35.5268 35.705 34.3059 36.6051 33.4058C37.5053 32.5056 38.7262 31.9999 39.9992 31.9999ZM49.5992 55.9998H30.3993C29.9749 55.9998 29.568 55.8312 29.2679 55.5311C28.9678 55.2311 28.7993 54.8241 28.7993 54.3998C28.7993 53.9754 28.9678 53.5685 29.2679 53.2684C29.568 52.9683 29.9749 52.7998 30.3993 52.7998H49.5992C50.0235 52.7998 50.4305 52.9683 50.7306 53.2684C51.0306 53.5685 51.1992 53.9754 51.1992 54.3998C51.1992 54.8241 51.0306 55.2311 50.7306 55.5311C50.4305 55.8312 50.0235 55.9998 49.5992 55.9998ZM49.5992 47.9998H30.3993C29.9749 47.9998 29.568 47.8312 29.2679 47.5312C28.9678 47.2311 28.7993 46.8242 28.7993 46.3998C28.7993 45.9755 28.9678 45.5685 29.2679 45.2684C29.568 44.9684 29.9749 44.7998 30.3993 44.7998H49.5992C50.0235 44.7998 50.4305 44.9684 50.7306 45.2684C51.0306 45.5685 51.1992 45.9755 51.1992 46.3998C51.1992 46.8242 51.0306 47.2311 50.7306 47.5312C50.4305 47.8312 50.0235 47.9998 49.5992 47.9998Z"></path>
</symbol></defs><use href="#university" fill="#FF0B37"></use></svg>