<svg xmlns:xlink="http://www.w3.org/1999/xlink" xmlns="http://www.w3.org/2000/svg" width="32" height="32" fill="currentColor"><defs><symbol id="facebook" viewBox="0 0 40 40">
<path d="M0 20C0 29.8889 7.22222 38.1111 16.6667 39.7778L16.6667 25.5555H11.6667V20H16.6667V15.5555C16.6667 10.5555 19.8889 7.77777 24.4445 7.77777C25.8889 7.77777 27.4445 7.99999 28.8889 8.22222V13.3333H26.3334C23.8889 13.3333 23.3334 14.5555 23.3334 16.1111V20H28.6667L27.7778 25.5555H23.3334L23.3333 39.7778C32.7778 38.1111 40 29.8889 40 20C40 9 31 0 20 0C9 0 0 9 0 20Z"></path>
</symbol></defs><use xlink:href="#facebook"></use></svg>