<svg xmlns:xlink="http://www.w3.org/1999/xlink" xmlns="http://www.w3.org/2000/svg" class="feature__icon-image" fill="#FF0B37" height="50" width="50"><defs><symbol id="learn" viewBox="0 0 80 80">
<path fill-rule="evenodd" clip-rule="evenodd" d="M8.98622 43.4459C11.2784 43.4459 13.143 41.5604 13.143 39.2427C13.143 37.4291 12.0012 35.8804 10.4064 35.2923V24.0335L22.0998 27.7792V40.2096C22.1123 40.644 22.3048 41.0552 22.6593 41.316C22.9151 41.5043 29.051 45.9287 39.9712 45.9287C50.8914 45.9287 57.026 41.5042 57.2818 41.3159C57.6274 41.0613 57.8412 40.6389 57.8412 40.2095V27.7791L71.3738 23.4442C71.9178 23.2699 72.2974 22.7771 72.3267 22.2063C72.356 21.6358 72.0291 21.1066 71.5057 20.8774L40.5209 7.30986C40.1694 7.15599 39.7699 7.15599 39.4187 7.30986L8.43516 20.8773C7.91171 21.1064 7.58486 21.6356 7.61412 22.2063C7.61907 22.3024 7.65864 35.2605 7.65864 35.2605C6.01575 35.822 4.82926 37.3942 4.82926 39.2427C4.8294 41.5603 6.69417 43.4459 8.98622 43.4459ZM28.7127 24.4397C36.8217 21.462 47.6024 21.7583 55.0934 26.2566V37.8168C50.264 35.3818 44.7373 34.414 39.3617 34.4955C34.3891 34.5702 29.31 35.5611 24.8476 37.8166V26.254C26.0613 25.5207 27.3805 24.9291 28.7127 24.4397ZM39.9713 43.1808C33.3827 43.1808 28.6712 41.4131 26.2213 40.2053C34.4962 36.1057 45.4376 36.1347 53.7114 40.2096C51.258 41.4178 46.5508 43.1808 39.9713 43.1808ZM39.9698 10.0682L67.0738 21.9362L57.7154 24.9339C57.6061 24.696 57.4261 24.5022 57.2136 24.3529C52.3925 20.9483 45.7173 19.7875 39.9697 19.7875C34.1778 19.7875 27.607 20.9458 22.7578 24.3315C22.533 24.4874 22.3411 24.6824 22.2254 24.9339L12.867 21.9362L39.9698 10.0682ZM8.98622 37.7872C9.76315 37.7872 10.3953 38.44 10.3953 39.2427C10.3953 40.0453 9.76315 40.6982 8.98622 40.6982C8.20929 40.6982 7.57717 40.0453 7.57717 39.2427C7.57717 38.44 8.20929 37.7872 8.98622 37.7872Z"></path>
<path fill-rule="evenodd" clip-rule="evenodd" d="M72.4525 64.0256L70.5958 63.5259C70.7426 62.0402 71.2023 60.772 71.9682 59.7454C72.6344 58.8524 73.3156 58.4581 73.3914 58.4159C73.9112 58.1692 74.2075 57.6314 74.1554 57.0578C74.1031 56.4812 73.6799 56.0067 73.1198 55.8602L66.0449 54.0093C65.3107 53.8174 64.5601 54.2566 64.368 54.9908C64.176 55.7249 64.6153 56.4757 65.3495 56.6677L69.9466 57.8702C69.0802 58.9502 68.2215 60.5467 67.9149 62.8044L50.3927 58.0741C47.3358 57.2466 44.1085 59.644 44.1085 62.8393C44.1087 63.2527 43.9341 63.6499 43.6165 63.9575C43.2958 64.2681 42.864 64.4462 42.4316 64.4462H41.3735V58.6838C41.3735 55.9475 43.1138 53.5143 45.7048 52.6291C46.9017 52.2196 48.1801 52.1734 49.4046 52.4963L53.6443 53.6054C54.3784 53.7976 55.1292 53.3581 55.3211 52.6239C55.5132 51.8898 55.0738 51.139 54.3396 50.9471L50.1026 49.8386C48.355 49.3778 46.5266 49.4436 44.8159 50.0292C42.7656 50.7296 41.0889 52.1094 39.9998 53.8651C38.9112 52.1094 37.235 50.7296 35.1858 50.0296C33.475 49.4436 31.6464 49.3777 29.9003 49.8381L6.85927 55.8715C6.29928 56.0181 5.87626 56.4928 5.82391 57.0692C5.77184 57.6428 6.06819 58.1806 6.58793 58.4272C6.66391 58.4695 7.34508 58.8638 8.01114 59.7567C8.77598 60.782 9.23541 62.0485 9.38282 63.5319L7.54896 64.0255C6.61637 64.2647 5.83188 64.8517 5.33907 65.6792C4.84433 66.5098 4.70282 67.4833 4.94037 68.4204L5.21569 69.5066C5.45324 70.4437 6.0414 71.2322 6.87205 71.7269C7.70256 72.2215 8.6761 72.3631 9.61322 72.1256L9.63479 72.12L28.4555 67.0222C29.1488 68.5088 30.2117 69.827 31.5307 70.8161C33.2663 72.1175 35.3308 72.8054 37.5009 72.8054H42.4996C44.6697 72.8054 46.7341 72.1175 48.4698 70.8161C49.7889 69.827 50.8517 68.5088 51.545 67.0222L70.3657 72.12L70.3873 72.1256C71.3244 72.3632 72.298 72.2215 73.1285 71.7269C73.9591 71.2322 74.5473 70.4437 74.7848 69.5066L75.0602 68.4204C75.2977 67.4833 75.1561 66.5098 74.6615 65.6792C74.1688 64.8519 73.3847 64.2651 72.4525 64.0256ZM10.0325 57.8811L30.5986 52.4956C31.8208 52.1731 33.0992 52.2193 34.2963 52.6294C36.8858 53.514 38.6256 55.9472 38.6256 58.684V64.4463H37.5701C36.6803 64.4463 35.89 63.6982 35.8906 62.8382C35.8906 59.6362 32.6448 57.2744 29.6087 58.0744L12.0637 62.8103C11.7563 60.5555 10.8982 58.9601 10.0325 57.8811ZM72.3967 67.7453L72.1214 68.8315C71.944 69.3309 71.5937 69.5419 71.0708 69.4641L51.0718 64.0472C50.358 63.854 49.619 64.2606 49.4002 64.9672C48.4727 67.9644 45.6353 70.0577 42.4998 70.0577H37.501C34.3657 70.0577 31.5281 67.9644 30.6006 64.9672C30.4187 64.3794 29.8768 63.9991 29.2888 63.9991C29.1698 63.9991 29.049 64.0146 28.9289 64.0472L8.92972 69.464C8.40668 69.5418 8.05648 69.3309 7.87911 68.8313L7.60378 67.7451C7.49167 67.3025 7.82182 66.797 8.2539 66.6811L30.4263 60.7132C31.8076 60.369 33.1303 61.4804 33.1435 62.8799C33.1656 65.175 35.1616 67.1941 37.5692 67.1941H42.4311C43.5875 67.1941 44.6874 66.7456 45.5282 65.9315C46.3857 65.1012 46.8576 64.0024 46.8569 62.8376C46.8562 61.4633 48.2263 60.3778 49.574 60.7133L71.7463 66.6812C72.1787 66.797 72.5088 67.3025 72.3967 67.7453Z"></path>
<path d="M59.2512 52.7098C59.8762 52.2957 60.7383 52.4668 61.1568 53.089C61.5715 53.7114 61.3993 54.5782 60.7776 54.9947C60.1563 55.4108 59.2853 55.2369 58.872 54.6141C58.4596 53.9925 58.6263 53.1238 59.2512 52.7098Z"></path>
</symbol></defs><use href="#learn" fill="#FF0B37"></use></svg>