<svg xmlns:xlink="http://www.w3.org/1999/xlink" xmlns="http://www.w3.org/2000/svg" class="media-card__icon" fill="#FF0B37" height="16" width="16"><defs><symbol id="location" viewBox="0 0 40 40">
<path fill-rule="evenodd" clip-rule="evenodd" d="M19.5 0C14.8603 0.0052934 10.4122 1.85075 7.13149 5.13149C3.85075 8.41223 2.00529 12.8603 2 17.5C2 33.205 17 39.3875 17.6425 39.6425C18.8349 40.1196 20.1651 40.1196 21.3575 39.6425C22 39.3875 37 33.205 37 17.5C36.9947 12.8603 35.1492 8.41223 31.8685 5.13149C28.5878 1.85075 24.1397 0.0052934 19.5 0ZM19.5 35C19.5 35 7 30 7 17.5C7 14.1848 8.31695 11.0054 10.6612 8.66116C13.0054 6.31695 16.1848 5 19.5 5C22.8152 5 25.9946 6.31695 28.3388 8.66116C30.683 11.0054 32 14.1848 32 17.5C32 30 19.5 35 19.5 35ZM19.5 12.5C18.5111 12.5 17.5444 12.7933 16.7221 13.3427C15.8999 13.8921 15.259 14.673 14.8806 15.5866C14.5022 16.5002 14.4032 17.5056 14.5961 18.4755C14.789 19.4454 15.2652 20.3363 15.9645 21.0355C16.6637 21.7348 17.5546 22.211 18.5245 22.4039C19.4944 22.5968 20.4998 22.4978 21.4134 22.1194C22.327 21.741 23.1079 21.1001 23.6573 20.2779C24.2067 19.4556 24.5 18.4889 24.5 17.5C24.5 16.1739 23.9732 14.9021 23.0355 13.9645C22.0979 13.0268 20.8261 12.5 19.5 12.5Z"></path>
</symbol></defs> <use href="#location" fill="#FF0B37"></use></svg>