<svg xmlns:xlink="http://www.w3.org/1999/xlink" xmlns="http://www.w3.org/2000/svg" class="feature__icon-image" fill="#FF0B37" height="40" width="33.6"><defs><symbol id="mouse" viewBox="0 0 80 80">
<path d="M56.3109 22.562C61.7099 22.9954 66.7809 25.3978 70.6101 29.3364C74.4394 33.275 76.7752 38.4908 77.1966 44.0439H56.3109V22.562ZM52.8151 44.0439V22.562C47.4161 22.9954 42.3452 25.3978 38.5159 29.3364C34.6866 33.275 32.3509 38.4908 31.9295 44.0439H52.8151ZM31.8403 47.6395V56.6285C31.8403 62.827 34.2343 68.7717 38.4957 73.1547C42.757 77.5377 48.5366 80 54.563 80C60.5895 80 66.3691 77.5377 70.6304 73.1547C74.8917 68.7717 77.2857 62.827 77.2857 56.6285V47.6395H31.8403ZM51.9045 19.0131C52.7878 18.9206 53.6751 18.8744 54.563 18.8747C55.437 18.8747 56.2969 18.9232 57.1464 19.0095C56.9544 13.8361 54.7965 8.94677 51.1365 5.39269C47.4765 1.83861 42.6067 -0.096396 37.5742 0.0036985C32.5418 0.103793 27.7484 2.23099 24.2247 5.92795C20.701 9.62492 18.7285 14.5964 18.7311 19.7736V69.2132C18.7311 70.6436 18.1786 72.0154 17.1952 73.0269C16.2119 74.0384 14.8781 74.6066 13.4874 74.6066C12.0967 74.6066 10.7629 74.0384 9.77954 73.0269C8.79616 72.0154 8.2437 70.6436 8.2437 69.2132V40.4483C8.2437 39.7331 7.96747 39.0472 7.47577 38.5414C6.98408 38.0357 6.31721 37.7516 5.62185 37.7516C4.92649 37.7516 4.25962 38.0357 3.76792 38.5414C3.27623 39.0472 3 39.7331 3 40.4483V69.2132C3 72.074 4.10492 74.8177 6.07169 76.8406C8.03845 78.8635 10.706 80 13.4874 80C16.2688 80 18.9363 78.8635 20.9031 76.8406C22.8699 74.8177 23.9748 72.074 23.9748 69.2132V19.7736C23.9731 16.0262 25.3943 12.4263 27.9356 9.74103C30.4769 7.05578 33.9374 5.49754 37.5794 5.39837C41.2215 5.2992 44.7572 6.66696 47.4331 9.21015C50.109 11.7533 51.7134 15.2709 51.9045 19.0131Z"></path>
</symbol></defs><use href="#mouse" fill="#FF0B37"></use></svg>