<svg xmlns:xlink="http://www.w3.org/1999/xlink" xmlns="http://www.w3.org/2000/svg" class="feature__icon-image" fill="#FF0B37" height="40" width="33.6"><defs><symbol id="docs" viewBox="0 0 80 81">
<path d="M55.6001 13.4655H10.8C9.52697 13.4655 8.30607 13.9712 7.40589 14.8714C6.50571 15.7715 6 16.9924 6 18.2655V68.0832L15.8704 63.2672C16.0594 63.1749 16.2647 63.1208 16.4746 63.1079C16.6845 63.095 16.8949 63.1237 17.0937 63.1922C17.2926 63.2607 17.4759 63.3677 17.6334 63.5072C17.7908 63.6466 17.9192 63.8157 18.0112 64.0048L26.1376 80.6656H55.6001C56.8732 80.6656 58.0941 80.1599 58.9942 79.2597C59.8944 78.3596 60.4001 77.1387 60.4001 75.8656V18.2655C60.4001 16.9924 59.8944 15.7715 58.9942 14.8714C58.0941 13.9712 56.8732 13.4655 55.6001 13.4655ZM50.8001 67.8656H33.2001C32.7757 67.8656 32.3687 67.697 32.0687 67.397C31.7686 67.0969 31.6001 66.6899 31.6001 66.2656C31.6001 65.8413 31.7686 65.4343 32.0687 65.1342C32.3687 64.8342 32.7757 64.6656 33.2001 64.6656H50.8001C51.2244 64.6656 51.6314 64.8342 51.9315 65.1342C52.2315 65.4343 52.4001 65.8413 52.4001 66.2656C52.4001 66.6899 52.2315 67.0969 51.9315 67.397C51.6314 67.697 51.2244 67.8656 50.8001 67.8656ZM50.8001 55.0656H15.6C15.1757 55.0656 14.7687 54.897 14.4686 54.5969C14.1686 54.2969 14 53.8899 14 53.4656C14 53.0412 14.1686 52.6343 14.4686 52.3342C14.7687 52.0341 15.1757 51.8656 15.6 51.8656H50.8001C51.2244 51.8656 51.6314 52.0341 51.9315 52.3342C52.2315 52.6343 52.4001 53.0412 52.4001 53.4656C52.4001 53.8899 52.2315 54.2969 51.9315 54.5969C51.6314 54.897 51.2244 55.0656 50.8001 55.0656ZM50.8001 42.2655H15.6C15.1757 42.2655 14.7687 42.097 14.4686 41.7969C14.1686 41.4969 14 41.0899 14 40.6655C14 40.2412 14.1686 39.8342 14.4686 39.5342C14.7687 39.2341 15.1757 39.0655 15.6 39.0655H50.8001C51.2244 39.0655 51.6314 39.2341 51.9315 39.5342C52.2315 39.8342 52.4001 40.2412 52.4001 40.6655C52.4001 41.0899 52.2315 41.4969 51.9315 41.7969C51.6314 42.097 51.2244 42.2655 50.8001 42.2655ZM50.8001 29.4655H15.6C15.1757 29.4655 14.7687 29.2969 14.4686 28.9969C14.1686 28.6968 14 28.2899 14 27.8655C14 27.4412 14.1686 27.0342 14.4686 26.7341C14.7687 26.4341 15.1757 26.2655 15.6 26.2655H50.8001C51.2244 26.2655 51.6314 26.4341 51.9315 26.7341C52.2315 27.0342 52.4001 27.4412 52.4001 27.8655C52.4001 28.2899 52.2315 28.6968 51.9315 28.9969C51.6314 29.2969 51.2244 29.4655 50.8001 29.4655Z"></path>
<path d="M7.50484 70.9107L22.3401 80.1795L15.8361 66.8467L7.50484 70.9107Z"></path>
<path d="M65.2005 74.2654C64.7761 74.2654 64.3692 74.0969 64.0691 73.7968C63.769 73.4967 63.6005 73.0898 63.6005 72.6654V11.8653C63.6005 11.4409 63.4319 11.034 63.1318 10.7339C62.8318 10.4338 62.4248 10.2653 62.0005 10.2653H10.8003C10.376 10.2653 9.96902 10.0967 9.66896 9.79665C9.36891 9.49659 9.20033 9.08962 9.20033 8.66527C9.20033 8.24092 9.36891 7.83395 9.66896 7.5339C9.96902 7.23384 10.376 7.06527 10.8003 7.06527H62.0005C63.2735 7.06527 64.4944 7.57098 65.3946 8.47116C66.2948 9.37133 66.8005 10.5922 66.8005 11.8653V72.6654C66.8005 73.0898 66.6319 73.4967 66.3318 73.7968C66.0318 74.0969 65.6248 74.2654 65.2005 74.2654Z"></path>
<path d="M71.5996 67.8657C71.1753 67.8657 70.7683 67.6971 70.4682 67.3971C70.1682 67.097 69.9996 66.69 69.9996 66.2657V5.46554C69.9996 5.04119 69.831 4.63422 69.531 4.33417C69.2309 4.03411 68.8239 3.86554 68.3996 3.86554H20.3995C19.9751 3.86554 19.5682 3.69696 19.2681 3.3969C18.968 3.09685 18.7995 2.68988 18.7995 2.26553C18.7995 1.84118 18.968 1.43422 19.2681 1.13416C19.5682 0.834099 19.9751 0.665527 20.3995 0.665527H68.3996C69.6726 0.665527 70.8935 1.17124 71.7937 2.07142C72.6939 2.97159 73.1996 4.1925 73.1996 5.46554V66.2657C73.1996 66.69 73.031 67.097 72.731 67.3971C72.4309 67.6971 72.0239 67.8657 71.5996 67.8657Z"></path>
</symbol></defs><use href="#docs" fill="#FF0B37"></use></svg>