<svg xmlns:xlink="http://www.w3.org/1999/xlink" xmlns="http://www.w3.org/2000/svg" class="page-header__nav-toggler-icon" width="22" height="22" fill="currentColor" aria-hidden="true"><defs><symbol id="menu" viewBox="0 0 40 40">
<path fill-rule="evenodd" clip-rule="evenodd" d="M36.6667 9.66667H3.33333C2.44928 9.66667 1.60148 9.31543 0.976359 8.69031C0.351238 8.06519 0 7.21739 0 6.33333C0 5.44928 0.351238 4.60148 0.976359 3.97636C1.60148 3.35124 2.44928 3 3.33333 3H36.6667C37.5507 3 38.3985 3.35124 39.0236 3.97636C39.6488 4.60148 40 5.44928 40 6.33333C40 7.21739 39.6488 8.06519 39.0236 8.69031C38.3985 9.31543 37.5507 9.66667 36.6667 9.66667ZM36.6667 23H3.33333C2.44928 23 1.60148 22.6488 0.976359 22.0236C0.351238 21.3985 0 20.5507 0 19.6667C0 18.7826 0.351238 17.9348 0.976359 17.3097C1.60148 16.6846 2.44928 16.3333 3.33333 16.3333H36.6667C37.5507 16.3333 38.3985 16.6846 39.0236 17.3097C39.6488 17.9348 40 18.7826 40 19.6667C40 20.5507 39.6488 21.3985 39.0236 22.0236C38.3985 22.6488 37.5507 23 36.6667 23ZM36.6667 36.3333H3.33333C2.44928 36.3333 1.60148 35.9821 0.976359 35.357C0.351238 34.7319 0 33.8841 0 33C0 32.1159 0.351238 31.2681 0.976359 30.643C1.60148 30.0179 2.44928 29.6667 3.33333 29.6667H36.6667C37.5507 29.6667 38.3985 30.0179 39.0236 30.643C39.6488 31.2681 40 32.1159 40 33C40 33.8841 39.6488 34.7319 39.0236 35.357C38.3985 35.9821 37.5507 36.3333 36.6667 36.3333Z"></path>
</symbol></defs>
                        <use xlink:href="#menu"></use>
                    </svg>