<svg xmlns:xlink="http://www.w3.org/1999/xlink" xmlns="http://www.w3.org/2000/svg" class="button__prepend" fill="currentColor" height="12" width="12"><defs><symbol id="download" viewBox="0 0 40 40">
<path fill-rule="evenodd" clip-rule="evenodd" d="M37.5 30C36.837 30 36.2011 30.2634 35.7323 30.7323C35.2634 31.2011 35 31.837 35 32.5V35H5V32.5C5 31.837 4.73657 31.2011 4.26773 30.7323C3.79889 30.2634 3.16304 30 2.5 30C1.83696 30 1.20111 30.2634 0.732269 30.7323C0.263428 31.2011 0 31.837 0 32.5V37.5C0 38.163 0.263428 38.7989 0.732269 39.2677C1.20111 39.7366 1.83696 40 2.5 40H37.5C38.163 40 38.7989 39.7366 39.2677 39.2677C39.7366 38.7989 40 38.163 40 37.5V32.5C40 31.837 39.7366 31.2011 39.2677 30.7323C38.7989 30.2634 38.163 30 37.5 30ZM18.2326 29.2674C18.7014 29.7361 19.3371 29.9995 20 29.9995C20.6629 29.9995 21.2986 29.7361 21.7674 29.2674L29.2674 21.7674C29.7228 21.2959 29.9749 20.6645 29.9692 20.009C29.9635 19.3535 29.7006 18.7265 29.2371 18.2629C28.7735 17.7994 28.1465 17.5365 27.491 17.5308C26.8355 17.5251 26.2041 17.7772 25.7326 18.2326L22.5 21.465V2.5C22.5 1.83696 22.2366 1.20111 21.7677 0.732269C21.2989 0.263428 20.663 0 20 0C19.337 0 18.7011 0.263428 18.2323 0.732269C17.7634 1.20111 17.5 1.83696 17.5 2.5V21.465L14.2674 18.2326C13.7959 17.7772 13.1645 17.5251 12.509 17.5308C11.8535 17.5365 11.2265 17.7994 10.7629 18.2629C10.2994 18.7265 10.0365 19.3535 10.0308 20.009C10.0251 20.6645 10.2772 21.2959 10.7326 21.7674L18.2326 29.2674Z"></path>
</symbol></defs> <use href="#download" fill="#FF0B37"></use></svg>