<svg xmlns:xlink="http://www.w3.org/1999/xlink" xmlns="http://www.w3.org/2000/svg" class="feature__icon-image" fill="#FF0B37" height="50" width="50"><defs><symbol id="lemonade" viewBox="0 0 80 80">
<path d="M52.6881 10.4316C52.9777 10.2651 53.3226 10.2238 53.6432 10.3172L69.3985 14.9517C70.6502 15.3179 72.0021 14.9886 72.9452 14.0877C73.8882 13.1868 74.2789 11.8513 73.9702 10.5841C73.6616 9.31703 72.7003 8.31086 71.4486 7.94463L55.7019 3.30895C53.4564 2.64826 51.0379 2.94183 49.0156 4.12055C46.9934 5.29928 45.546 7.25903 45.0143 9.53853L41.9798 22.4357H35.0774C34.438 14.7106 27.8733 8.83172 20.1247 9.04508C12.3761 9.25844 6.14489 15.4897 5.93153 23.2382C5.71817 30.9868 11.5971 37.5515 19.3221 38.1909V67.4541C19.3275 72.1557 23.1376 75.9658 27.8391 75.9711H49.74C54.4416 75.9658 58.2516 72.1557 58.257 67.4541V24.8691C58.257 23.5252 57.1675 22.4357 55.8236 22.4357H49.476L52.115 11.2103C52.1892 10.8822 52.3969 10.6 52.6881 10.4316ZM8.37172 23.6524C8.37731 17.1735 13.4589 11.8354 19.9297 11.511C26.4005 11.1867 31.9905 15.9898 32.644 22.4357H21.7556C20.4116 22.4357 19.3221 23.5252 19.3221 24.8691V35.7575C13.1089 35.1257 8.37959 29.8977 8.37172 23.6524ZM55.8236 24.8691V67.4541C55.8196 70.8123 53.0982 73.5337 49.74 73.5377H27.8391C24.481 73.5337 21.7596 70.8123 21.7556 67.4541V24.8691H41.408L37.4001 41.9031H25.4057C24.7337 41.9031 24.189 42.4479 24.189 43.1199V67.4541C24.189 69.4701 25.8232 71.1043 27.8391 71.1043H49.74C51.7559 71.1043 53.3902 69.4701 53.3902 67.4541V43.1199C53.3902 42.4479 52.8454 41.9031 52.1734 41.9031H44.8999L48.9041 24.8691H55.8236ZM50.9567 44.3366V67.4541C50.9567 68.1261 50.412 68.6709 49.74 68.6709H27.8391C27.1672 68.6709 26.6224 68.1261 26.6224 67.4541V44.3366H50.9567ZM39.9004 41.9031L43.9083 24.8691H46.4038L42.3996 41.9031H39.9004ZM49.7473 10.647L46.9769 22.4357H44.4802L47.3844 10.0921C47.7636 8.46372 48.7974 7.06367 50.2421 6.22205C51.6868 5.38042 53.4146 5.17168 55.0181 5.64504L70.7636 10.2807C71.0763 10.37 71.3396 10.582 71.4937 10.8684C71.6509 11.1529 71.6877 11.4886 71.5959 11.8004C71.5066 12.1072 71.298 12.3654 71.0167 12.517C70.7333 12.6725 70.3997 12.7088 70.0896 12.618L54.3173 7.9787C53.3566 7.69994 52.3235 7.82768 51.4597 8.33207C50.5958 8.83645 49.9768 9.67328 49.7473 10.647Z"></path>
<path d="M20.5389 18.7857C21.2108 18.7857 21.7556 18.2409 21.7556 17.569V15.1355C21.7556 14.4636 21.2108 13.9188 20.5389 13.9188C19.8669 13.9188 19.3221 14.4636 19.3221 15.1355V17.569C19.3221 18.2409 19.8669 18.7857 20.5389 18.7857Z"></path>
<path d="M15.672 23.6524C15.672 22.9804 15.1272 22.4357 14.4553 22.4357H12.0218C11.3499 22.4357 10.8051 22.9804 10.8051 23.6524C10.8051 24.3244 11.3499 24.8691 12.0218 24.8691H14.4553C15.1272 24.8691 15.672 24.3244 15.672 23.6524Z"></path>
<path d="M24.8411 20.5669C25.1638 20.5669 25.4732 20.4386 25.7013 20.2104L27.4826 18.4292C27.9437 17.9518 27.9371 17.1929 27.4678 16.7236C26.9984 16.2542 26.2396 16.2476 25.7622 16.7087L23.9809 18.49C23.633 18.838 23.529 19.3612 23.7173 19.8158C23.9055 20.2704 24.3491 20.5668 24.8411 20.5669Z"></path>
<path d="M15.3155 16.7087C14.8381 16.2476 14.0793 16.2542 13.6099 16.7236C13.1406 17.1929 13.134 17.9518 13.5951 18.4292L15.3764 20.2104C15.8538 20.6715 16.6127 20.6649 17.082 20.1956C17.5513 19.7263 17.5579 18.9674 17.0968 18.49L15.3155 16.7087Z"></path>
<path d="M15.3763 27.0943L13.5951 28.8756C13.2788 29.181 13.1519 29.6334 13.2633 30.0588C13.3746 30.4842 13.7068 30.8164 14.1322 30.9278C14.5576 31.0391 15.01 30.9123 15.3155 30.596L17.0968 28.8147C17.5579 28.3373 17.5513 27.5784 17.0819 27.1091C16.6126 26.6398 15.8537 26.6332 15.3763 27.0943Z"></path>
<path d="M44.8732 58.9371C42.8573 58.9371 41.223 60.5713 41.223 62.5872C41.223 64.6031 42.8573 66.2374 44.8732 66.2374C46.8891 66.2374 48.5233 64.6031 48.5233 62.5872C48.5233 60.5713 46.8891 58.9371 44.8732 58.9371ZM44.8732 63.8039C44.2012 63.8039 43.6565 63.2592 43.6565 62.5872C43.6565 61.9152 44.2012 61.3705 44.8732 61.3705C45.5451 61.3705 46.0899 61.9152 46.0899 62.5872C46.0899 63.2592 45.5451 63.8039 44.8732 63.8039Z"></path>
<path d="M33.9227 54.0701C35.9386 54.0701 37.5729 52.4359 37.5729 50.42C37.5729 48.4041 35.9386 46.7698 33.9227 46.7698C31.9068 46.7698 30.2726 48.4041 30.2726 50.42C30.2726 52.4359 31.9068 54.0701 33.9227 54.0701ZM33.9227 49.2033C34.5947 49.2033 35.1394 49.748 35.1394 50.42C35.1394 51.092 34.5947 51.6367 33.9227 51.6367C33.2508 51.6367 32.706 51.092 32.706 50.42C32.706 49.748 33.2508 49.2033 33.9227 49.2033Z"></path>
<path d="M41.223 55.2872C41.895 55.2872 42.4398 54.7425 42.4398 54.0705C42.4398 53.3985 41.895 52.8538 41.223 52.8538C40.5511 52.8538 40.0063 53.3985 40.0063 54.0705C40.0063 54.7425 40.5511 55.2872 41.223 55.2872Z"></path>
<path d="M47.3066 56.504C47.9785 56.504 48.5233 55.9592 48.5233 55.2873C48.5233 54.6153 47.9785 54.0705 47.3066 54.0705C46.6346 54.0705 46.0899 54.6153 46.0899 55.2873C46.0899 55.9592 46.6346 56.504 47.3066 56.504Z"></path>
<path d="M44.8732 49.2033C45.5451 49.2033 46.0899 48.6585 46.0899 47.9866C46.0899 47.3146 45.5451 46.7698 44.8732 46.7698C44.2012 46.7698 43.6564 47.3146 43.6564 47.9866C43.6564 48.6585 44.2012 49.2033 44.8732 49.2033Z"></path>
<path d="M37.5729 61.3705C38.2449 61.3705 38.7896 60.8258 38.7896 60.1538C38.7896 59.4818 38.2449 58.9371 37.5729 58.9371C36.9009 58.9371 36.3562 59.4818 36.3562 60.1538C36.3562 60.8258 36.9009 61.3705 37.5729 61.3705Z"></path>
<path d="M30.2726 58.9372C30.9446 58.9372 31.4893 58.3925 31.4893 57.7205C31.4893 57.0486 30.9446 56.5038 30.2726 56.5038C29.6006 56.5038 29.0559 57.0486 29.0559 57.7205C29.0559 58.3925 29.6006 58.9372 30.2726 58.9372Z"></path>
<path d="M32.706 66.2373C33.378 66.2373 33.9227 65.6926 33.9227 65.0206C33.9227 64.3486 33.378 63.8039 32.706 63.8039C32.034 63.8039 31.4893 64.3486 31.4893 65.0206C31.4893 65.6926 32.034 66.2373 32.706 66.2373Z"></path>
</symbol></defs><use href="#lemonade" fill="#FF0B37"></use></svg>