<svg xmlns:xlink="http://www.w3.org/1999/xlink" xmlns="http://www.w3.org/2000/svg" width="16" height="16" fill="none"><g opacity=".3" clip-path="url(#clip0)"><path d="M15.744 4.065l-.524-.528a.87.87 0 00-.619-.256.87.87 0 00-.619.256L8.004 9.516 2.018 3.53a.868.868 0 00-.619-.255.87.87 0 00-.619.255l-.524.525a.876.876 0 000 1.238l7.126 7.152a.9.9 0 00.621.28h.003a.895.895 0 00.618-.28l7.12-7.133A.884.884 0 0016 4.687a.875.875 0 00-.256-.622z" fill="#000"/></g><defs><clipPath id="clip0"><path fill="#fff" d="M0 0h16v16H0z"/></clipPath></defs></svg>