<svg xmlns:xlink="http://www.w3.org/1999/xlink" xmlns="http://www.w3.org/2000/svg" class="button__prepend" fill="currentColor" height="16" width="16"><defs><symbol id="clock" viewBox="0 0 40 40">
<path d="M20 0C8.95431 0 0 8.95431 0 20C0 31.0457 8.95431 40 20 40C31.0457 40 40 31.0457 40 20C39.9883 8.95925 31.0408 0.0118025 20 0ZM20 37.1429C10.5322 37.1429 2.85712 29.4678 2.85712 20C2.85712 10.5322 10.5322 2.85712 20 2.85712C29.4678 2.85712 37.1429 10.5322 37.1429 20C37.1327 29.4636 29.4636 37.1327 20 37.1429Z"></path>
<path d="M20 7.14288C19.211 7.14288 18.5714 7.78248 18.5714 8.57148V18.5715H8.57148C7.78248 18.5715 7.14288 19.2111 7.14288 20.0001C7.14288 20.7891 7.78248 21.4286 8.57148 21.4286H20C20.7891 21.4286 21.4286 20.7891 21.4286 20V8.57148C21.4286 7.78248 20.7891 7.14288 20 7.14288Z"></path>
</symbol></defs> <use href="#clock" fill="#2069F8"></use> </svg>