<svg xmlns:xlink="http://www.w3.org/1999/xlink" xmlns="http://www.w3.org/2000/svg" width="32" height="32" fill="currentColor"><defs><symbol id="vk" viewBox="0 0 40 40">
<path fill-rule="evenodd" clip-rule="evenodd" d="M20 40C31.0457 40 40 31.0457 40 20C40 8.9543 31.0457 0 20 0C8.9543 0 0 8.9543 0 20C0 31.0457 8.9543 40 20 40ZM32.3751 13C33.3345 13 33.5361 13.4876 33.3345 14.1511C32.9312 15.9758 29.0658 21.3505 29.0658 21.3505C28.7297 21.8813 28.5953 22.1467 29.0658 22.7438C29.2315 22.9729 29.5852 23.3148 29.9897 23.7059C30.4058 24.1082 30.8757 24.5626 31.2506 24.9999C32.6134 26.5132 33.6405 27.7899 33.9266 28.6698C34.188 29.5526 33.7348 30 32.8283 30H29.6557C28.8059 30 28.378 29.5302 27.4534 28.5149C27.0615 28.0846 26.5803 27.5562 25.94 26.9242C24.0577 25.1326 23.251 24.9004 22.7805 24.9004C22.1419 24.9004 21.9508 25.0789 21.9508 25.9737V28.782C21.9508 29.5526 21.7013 30 19.6847 30C16.3235 30 12.6298 27.9858 10.0081 24.27C6.07559 18.829 5 14.7151 5 13.8857C5 13.4212 5.1813 13 6.08776 13H9.26038C10.0712 13 10.3762 13.3503 10.6803 14.2175C12.232 18.679 14.8482 22.578 15.9237 22.578C16.3271 22.578 16.5121 22.3947 16.5121 21.3837V16.7721C16.4392 15.4594 15.9747 14.8917 15.6306 14.4712C15.4181 14.2115 15.2515 14.008 15.2515 13.7198C15.2515 13.3696 15.5547 13 16.0588 13H21.0444C21.7167 13 21.9402 13.3549 21.9402 14.1511V20.3552C21.9402 21.0187 22.2427 21.2509 22.4443 21.2509C22.8477 21.2509 23.1838 21.0187 23.9233 20.2888C26.2088 17.7674 27.8222 13.8857 27.8222 13.8857C28.0239 13.4212 28.3958 13 29.2025 13H32.3751Z"></path>
</symbol></defs><use xlink:href="#vk"></use></svg>