<svg xmlns:xlink="http://www.w3.org/1999/xlink" xmlns="http://www.w3.org/2000/svg" width="32" height="32" fill="currentColor"><defs><symbol id="youtube" viewBox="0 0 40 40">
<path d="M17.7306 23.9378L24.6258 19.956L17.7306 15.9743V23.9378Z"></path>
<path fill-rule="evenodd" clip-rule="evenodd" d="M20 40C31.0457 40 40 31.0457 40 20C40 8.9543 31.0457 0 20 0C8.9543 0 0 8.9543 0 20C0 31.0457 8.9543 40 20 40ZM33.1002 13.5675C32.7962 12.4274 31.8968 11.528 30.7525 11.2198C28.6835 10.6667 20.3822 10.6667 20.3822 10.6667C20.3822 10.6667 12.0851 10.6667 10.0119 11.2198C8.87187 11.5238 7.97249 12.4232 7.66425 13.5675C7.11111 15.6365 7.11111 19.956 7.11111 19.956C7.11111 19.956 7.11111 24.2756 7.66425 26.3446C7.96827 27.4846 8.86764 28.384 10.0119 28.6922C12.0851 29.2454 20.3822 29.2454 20.3822 29.2454C20.3822 29.2454 28.6836 29.2454 30.7525 28.6922C31.8926 28.3882 32.792 27.4888 33.1002 26.3446C33.6532 24.276 33.6533 19.956 33.6533 19.956C33.6533 19.956 33.6532 15.6361 33.1002 13.5675Z"></path>
</symbol></defs><use xlink:href="#youtube"></use></svg>